<?xml version="1.0" encoding="UTF-8" standalone="no"?>
<!DOCTYPE svg PUBLIC "-//W3C//DTD SVG 1.1//EN"
 "http://www.w3.org/Graphics/SVG/1.1/DTD/svg11.dtd">
<!-- Generated by graphviz version 12.1.0 (20240811.2233)
 -->
<!-- Title: G Pages: 1 -->
<svg width="932pt" height="872pt"
 viewBox="0.00 0.00 931.75 872.00" xmlns="http://www.w3.org/2000/svg" xmlns:xlink="http://www.w3.org/1999/xlink">
<g id="graph0" class="graph" transform="scale(1 1) rotate(0) translate(4 868)">
<title>G</title>
<polygon fill="white" stroke="none" points="-4,4 -4,-868 927.75,-868 927.75,4 -4,4"/>
<!-- s0 -->
<g id="s0" class="node">
<title>s0</title>
<path fill="#f1f5f9" stroke="black" d="M157,-814.5C157,-814.5 295.5,-814.5 295.5,-814.5 301.5,-814.5 307.5,-820.5 307.5,-826.5 307.5,-826.5 307.5,-851.5 307.5,-851.5 307.5,-857.5 301.5,-863.5 295.5,-863.5 295.5,-863.5 157,-863.5 157,-863.5 151,-863.5 145,-857.5 145,-851.5 145,-851.5 145,-826.5 145,-826.5 145,-820.5 151,-814.5 157,-814.5"/>
<text text-anchor="middle" x="226" y="-846.2" font-family="Courier New" font-size="14.00">tState=1</text>
<polyline fill="none" stroke="black" points="145,-839 307.5,-839"/>
<text text-anchor="middle" x="185.62" y="-821.7" font-family="Courier New" font-size="14.00">t1.cs=␡</text>
<polyline fill="none" stroke="black" points="226.25,-814.5 226.25,-839"/>
<text text-anchor="middle" x="266.88" y="-821.7" font-family="Courier New" font-size="14.00">t2.cs=␡</text>
</g>
<!-- s1 -->
<g id="s1" class="node">
<title>s1</title>
<path fill="#f1f5f9" stroke="black" d="M34,-712.75C34,-712.75 172.5,-712.75 172.5,-712.75 178.5,-712.75 184.5,-718.75 184.5,-724.75 184.5,-724.75 184.5,-749.75 184.5,-749.75 184.5,-755.75 178.5,-761.75 172.5,-761.75 172.5,-761.75 34,-761.75 34,-761.75 28,-761.75 22,-755.75 22,-749.75 22,-749.75 22,-724.75 22,-724.75 22,-718.75 28,-712.75 34,-712.75"/>
<text text-anchor="middle" x="103" y="-744.45" font-family="Courier New" font-size="14.00">tState=1</text>
<polyline fill="none" stroke="black" points="22,-737.25 184.5,-737.25"/>
<text text-anchor="middle" x="62.62" y="-719.95" font-family="Courier New" font-size="14.00">t1.cs=␡</text>
<polyline fill="none" stroke="black" points="103.25,-712.75 103.25,-737.25"/>
<text text-anchor="middle" x="143.88" y="-719.95" font-family="Courier New" font-size="14.00">t2.cs=␡</text>
</g>
<!-- s0&#45;&gt;s1 -->
<g id="s0&#45;s1" class="edge">
<title>s0&#45;&gt;s1</title>
<path fill="none" stroke="#be123c" d="M196.79,-814.11C180.05,-800.54 158.93,-783.4 140.99,-768.85"/>
<polygon fill="#be123c" stroke="#be123c" points="143.62,-766.48 133.65,-762.9 139.21,-771.92 143.62,-766.48"/>
<text text-anchor="middle" x="177.74" y="-782.7" font-family="Helvetica,sans-Serif" font-size="14.00" fill="#be123c">t1</text>
</g>
<!-- s2 -->
<g id="s2" class="node">
<title>s2</title>
<path fill="#f1f5f9" stroke="black" d="M280,-712.75C280,-712.75 418.5,-712.75 418.5,-712.75 424.5,-712.75 430.5,-718.75 430.5,-724.75 430.5,-724.75 430.5,-749.75 430.5,-749.75 430.5,-755.75 424.5,-761.75 418.5,-761.75 418.5,-761.75 280,-761.75 280,-761.75 274,-761.75 268,-755.75 268,-749.75 268,-749.75 268,-724.75 268,-724.75 268,-718.75 274,-712.75 280,-712.75"/>
<text text-anchor="middle" x="349" y="-744.45" font-family="Courier New" font-size="14.00">tState=1</text>
<polyline fill="none" stroke="black" points="268,-737.25 430.5,-737.25"/>
<text text-anchor="middle" x="308.62" y="-719.95" font-family="Courier New" font-size="14.00">t1.cs=␡</text>
<polyline fill="none" stroke="black" points="349.25,-712.75 349.25,-737.25"/>
<text text-anchor="middle" x="389.88" y="-719.95" font-family="Courier New" font-size="14.00">t2.cs=␡</text>
</g>
<!-- s0&#45;&gt;s2 -->
<g id="s0&#45;s2" class="edge">
<title>s0&#45;&gt;s2</title>
<path fill="none" stroke="#1d4ed8" d="M255.71,-814.11C272.45,-800.54 293.57,-783.4 311.51,-768.85"/>
<polygon fill="#1d4ed8" stroke="#1d4ed8" points="313.29,-771.92 318.85,-762.9 308.88,-766.48 313.29,-771.92"/>
<text text-anchor="middle" x="300.74" y="-782.7" font-family="Helvetica,sans-Serif" font-size="14.00" fill="#1d4ed8">t2</text>
</g>
<!-- s1&#45;&gt;s1 -->
<g id="s1&#45;s1" class="edge">
<title>s1&#45;&gt;s1</title>
<path fill="none" stroke="#be123c" d="M184.79,-746.78C214.35,-747.01 238.5,-743.83 238.5,-737.25 238.5,-731.54 220.34,-728.39 196.24,-727.81"/>
<polygon fill="#be123c" stroke="#be123c" points="196.33,-724.31 186.3,-727.73 196.28,-731.31 196.33,-724.31"/>
<text text-anchor="middle" x="244.12" y="-731.83" font-family="Helvetica,sans-Serif" font-size="14.00" fill="#be123c">t1</text>
</g>
<!-- s3 -->
<g id="s3" class="node">
<title>s3</title>
<path fill="#f1f5f9" stroke="black" d="M34,-611C34,-611 172.5,-611 172.5,-611 178.5,-611 184.5,-617 184.5,-623 184.5,-623 184.5,-648 184.5,-648 184.5,-654 178.5,-660 172.5,-660 172.5,-660 34,-660 34,-660 28,-660 22,-654 22,-648 22,-648 22,-623 22,-623 22,-617 28,-611 34,-611"/>
<text text-anchor="middle" x="103" y="-642.7" font-family="Courier New" font-size="14.00">tState=1</text>
<polyline fill="none" stroke="black" points="22,-635.5 184.5,-635.5"/>
<text text-anchor="middle" x="62.62" y="-618.2" font-family="Courier New" font-size="14.00">t1.cs=␡</text>
<polyline fill="none" stroke="black" points="103.25,-611 103.25,-635.5"/>
<text text-anchor="middle" x="143.88" y="-618.2" font-family="Courier New" font-size="14.00">t2.cs=␡</text>
</g>
<!-- s1&#45;&gt;s3 -->
<g id="s1&#45;s3" class="edge">
<title>s1&#45;&gt;s3</title>
<path fill="none" stroke="#1d4ed8" d="M103.25,-712.36C103.25,-700.14 103.25,-685.04 103.25,-671.54"/>
<polygon fill="#1d4ed8" stroke="#1d4ed8" points="106.75,-671.71 103.25,-661.71 99.75,-671.71 106.75,-671.71"/>
<text text-anchor="middle" x="108.88" y="-680.95" font-family="Helvetica,sans-Serif" font-size="14.00" fill="#1d4ed8">t2</text>
</g>
<!-- s2&#45;&gt;s3 -->
<g id="s2&#45;s3" class="edge">
<title>s2&#45;&gt;s3</title>
<path fill="none" stroke="#be123c" d="M290.33,-712.36C254.86,-697.97 209.52,-679.59 172.37,-664.53"/>
<polygon fill="#be123c" stroke="#be123c" points="174.1,-661.45 163.52,-660.94 171.47,-667.94 174.1,-661.45"/>
<text text-anchor="middle" x="246.6" y="-680.95" font-family="Helvetica,sans-Serif" font-size="14.00" fill="#be123c">t1</text>
</g>
<!-- s4 -->
<g id="s4" class="node">
<title>s4</title>
<path fill="#f1f5f9" stroke="black" d="M282,-611C282,-611 420.5,-611 420.5,-611 426.5,-611 432.5,-617 432.5,-623 432.5,-623 432.5,-648 432.5,-648 432.5,-654 426.5,-660 420.5,-660 420.5,-660 282,-660 282,-660 276,-660 270,-654 270,-648 270,-648 270,-623 270,-623 270,-617 276,-611 282,-611"/>
<text text-anchor="middle" x="351" y="-642.7" font-family="Courier New" font-size="14.00">tState=0</text>
<polyline fill="none" stroke="black" points="270,-635.5 432.5,-635.5"/>
<text text-anchor="middle" x="310.62" y="-618.2" font-family="Courier New" font-size="14.00">t1.cs=␡</text>
<polyline fill="none" stroke="black" points="351.25,-611 351.25,-635.5"/>
<text text-anchor="middle" x="391.88" y="-618.2" font-family="Courier New" font-size="14.00">t2.cs=␡</text>
</g>
<!-- s2&#45;&gt;s4 -->
<g id="s2&#45;s4" class="edge">
<title>s2&#45;&gt;s4</title>
<path fill="none" stroke="#1d4ed8" d="M349.73,-712.36C349.97,-700.14 350.28,-685.04 350.55,-671.54"/>
<polygon fill="#1d4ed8" stroke="#1d4ed8" points="354.04,-671.78 350.74,-661.71 347.04,-671.64 354.04,-671.78"/>
<text text-anchor="middle" x="355.99" y="-680.95" font-family="Helvetica,sans-Serif" font-size="14.00" fill="#1d4ed8">t2</text>
</g>
<!-- s3&#45;&gt;s3 -->
<g id="s3&#45;s3" class="edge">
<title>s3&#45;&gt;s3</title>
<path fill="none" stroke="#be123c" d="M184.79,-645.03C214.35,-645.26 238.5,-642.08 238.5,-635.5 238.5,-629.79 220.34,-626.64 196.24,-626.06"/>
<polygon fill="#be123c" stroke="#be123c" points="196.33,-622.56 186.3,-625.98 196.28,-629.56 196.33,-622.56"/>
<text text-anchor="middle" x="244.12" y="-630.08" font-family="Helvetica,sans-Serif" font-size="14.00" fill="#be123c">t1</text>
</g>
<!-- s5 -->
<g id="s5" class="node">
<title>s5</title>
<path fill="#f1f5f9" stroke="black" d="M19,-509.25C19,-509.25 157.5,-509.25 157.5,-509.25 163.5,-509.25 169.5,-515.25 169.5,-521.25 169.5,-521.25 169.5,-546.25 169.5,-546.25 169.5,-552.25 163.5,-558.25 157.5,-558.25 157.5,-558.25 19,-558.25 19,-558.25 13,-558.25 7,-552.25 7,-546.25 7,-546.25 7,-521.25 7,-521.25 7,-515.25 13,-509.25 19,-509.25"/>
<text text-anchor="middle" x="88" y="-540.95" font-family="Courier New" font-size="14.00">tState=0</text>
<polyline fill="none" stroke="black" points="7,-533.75 169.5,-533.75"/>
<text text-anchor="middle" x="47.62" y="-516.45" font-family="Courier New" font-size="14.00">t1.cs=␡</text>
<polyline fill="none" stroke="black" points="88.25,-509.25 88.25,-533.75"/>
<text text-anchor="middle" x="128.88" y="-516.45" font-family="Courier New" font-size="14.00">t2.cs=␡</text>
</g>
<!-- s3&#45;&gt;s5 -->
<g id="s3&#45;s5" class="edge">
<title>s3&#45;&gt;s5</title>
<path fill="none" stroke="#1d4ed8" d="M99.66,-610.61C97.82,-598.39 95.55,-583.29 93.52,-569.79"/>
<polygon fill="#1d4ed8" stroke="#1d4ed8" points="96.99,-569.31 92.04,-559.94 90.06,-570.35 96.99,-569.31"/>
<text text-anchor="middle" x="102.27" y="-579.2" font-family="Helvetica,sans-Serif" font-size="14.00" fill="#1d4ed8">t2</text>
</g>
<!-- s6 -->
<g id="s6" class="node">
<title>s6</title>
<path fill="#f1f5f9" stroke="black" d="M282,-509.25C282,-509.25 420.5,-509.25 420.5,-509.25 426.5,-509.25 432.5,-515.25 432.5,-521.25 432.5,-521.25 432.5,-546.25 432.5,-546.25 432.5,-552.25 426.5,-558.25 420.5,-558.25 420.5,-558.25 282,-558.25 282,-558.25 276,-558.25 270,-552.25 270,-546.25 270,-546.25 270,-521.25 270,-521.25 270,-515.25 276,-509.25 282,-509.25"/>
<text text-anchor="middle" x="351" y="-540.95" font-family="Courier New" font-size="14.00">tState=0</text>
<polyline fill="none" stroke="black" points="270,-533.75 432.5,-533.75"/>
<text text-anchor="middle" x="310.62" y="-516.45" font-family="Courier New" font-size="14.00">t1.cs=␡</text>
<polyline fill="none" stroke="black" points="351.25,-509.25 351.25,-533.75"/>
<text text-anchor="middle" x="391.88" y="-516.45" font-family="Courier New" font-size="14.00">t2.cs=␡</text>
</g>
<!-- s4&#45;&gt;s6 -->
<g id="s4&#45;s6" class="edge">
<title>s4&#45;&gt;s6</title>
<path fill="none" stroke="#be123c" d="M351.25,-610.61C351.25,-598.39 351.25,-583.29 351.25,-569.79"/>
<polygon fill="#be123c" stroke="#be123c" points="354.75,-569.96 351.25,-559.96 347.75,-569.96 354.75,-569.96"/>
<text text-anchor="middle" x="356.88" y="-579.2" font-family="Helvetica,sans-Serif" font-size="14.00" fill="#be123c">t1</text>
</g>
<!-- s7 -->
<g id="s7" class="node">
<title>s7</title>
<path fill="#bbf7d0" stroke="black" d="M498.75,-509.25C498.75,-509.25 629.75,-509.25 629.75,-509.25 635.75,-509.25 641.75,-515.25 641.75,-521.25 641.75,-521.25 641.75,-546.25 641.75,-546.25 641.75,-552.25 635.75,-558.25 629.75,-558.25 629.75,-558.25 498.75,-558.25 498.75,-558.25 492.75,-558.25 486.75,-552.25 486.75,-546.25 486.75,-546.25 486.75,-521.25 486.75,-521.25 486.75,-515.25 492.75,-509.25 498.75,-509.25"/>
<text text-anchor="middle" x="564.25" y="-540.95" font-family="Courier New" font-size="14.00">tState=0</text>
<polyline fill="none" stroke="black" points="486.75,-533.75 641.75,-533.75"/>
<text text-anchor="middle" x="527.38" y="-516.45" font-family="Courier New" font-size="14.00">t1.cs=␡</text>
<polyline fill="none" stroke="black" points="568,-509.25 568,-533.75"/>
<text text-anchor="middle" x="604.88" y="-516.45" font-family="Courier New" font-size="14.00">t2.cs=T</text>
</g>
<!-- s4&#45;&gt;s7 -->
<g id="s4&#45;s7" class="edge">
<title>s4&#45;&gt;s7</title>
<path fill="none" stroke="#1d4ed8" d="M402.27,-610.61C432.59,-596.41 471.23,-578.31 503.16,-563.36"/>
<polygon fill="#1d4ed8" stroke="#1d4ed8" points="504.34,-566.67 511.91,-559.26 501.37,-560.33 504.34,-566.67"/>
<text text-anchor="middle" x="476.13" y="-579.2" font-family="Helvetica,sans-Serif" font-size="14.00" fill="#1d4ed8">t2</text>
</g>
<!-- s5&#45;&gt;s5 -->
<g id="s5&#45;s5" class="edge">
<title>s5&#45;&gt;s5</title>
<path fill="none" stroke="#be123c" d="M169.79,-543.28C199.35,-543.51 223.5,-540.33 223.5,-533.75 223.5,-528.04 205.34,-524.89 181.24,-524.31"/>
<polygon fill="#be123c" stroke="#be123c" points="181.33,-520.81 171.3,-524.23 181.28,-527.81 181.33,-520.81"/>
<text text-anchor="middle" x="229.12" y="-528.33" font-family="Helvetica,sans-Serif" font-size="14.00" fill="#be123c">t1</text>
</g>
<!-- s8 -->
<g id="s8" class="node">
<title>s8</title>
<path fill="#bbf7d0" stroke="black" d="M17.75,-407.5C17.75,-407.5 148.75,-407.5 148.75,-407.5 154.75,-407.5 160.75,-413.5 160.75,-419.5 160.75,-419.5 160.75,-444.5 160.75,-444.5 160.75,-450.5 154.75,-456.5 148.75,-456.5 148.75,-456.5 17.75,-456.5 17.75,-456.5 11.75,-456.5 5.75,-450.5 5.75,-444.5 5.75,-444.5 5.75,-419.5 5.75,-419.5 5.75,-413.5 11.75,-407.5 17.75,-407.5"/>
<text text-anchor="middle" x="83.25" y="-439.2" font-family="Courier New" font-size="14.00">tState=0</text>
<polyline fill="none" stroke="black" points="5.75,-432 160.75,-432"/>
<text text-anchor="middle" x="46.38" y="-414.7" font-family="Courier New" font-size="14.00">t1.cs=␡</text>
<polyline fill="none" stroke="black" points="87,-407.5 87,-432"/>
<text text-anchor="middle" x="123.88" y="-414.7" font-family="Courier New" font-size="14.00">t2.cs=T</text>
</g>
<!-- s5&#45;&gt;s8 -->
<g id="s5&#45;s8" class="edge">
<title>s5&#45;&gt;s8</title>
<path fill="none" stroke="#1d4ed8" d="M87.05,-508.86C86.44,-496.64 85.68,-481.54 85.01,-468.04"/>
<polygon fill="#1d4ed8" stroke="#1d4ed8" points="88.51,-468.02 84.51,-458.21 81.52,-468.37 88.51,-468.02"/>
<text text-anchor="middle" x="91.67" y="-477.45" font-family="Helvetica,sans-Serif" font-size="14.00" fill="#1d4ed8">t2</text>
</g>
<!-- s9 -->
<g id="s9" class="node">
<title>s9</title>
<path fill="#f1f5f9" stroke="black" d="M282,-407.5C282,-407.5 420.5,-407.5 420.5,-407.5 426.5,-407.5 432.5,-413.5 432.5,-419.5 432.5,-419.5 432.5,-444.5 432.5,-444.5 432.5,-450.5 426.5,-456.5 420.5,-456.5 420.5,-456.5 282,-456.5 282,-456.5 276,-456.5 270,-450.5 270,-444.5 270,-444.5 270,-419.5 270,-419.5 270,-413.5 276,-407.5 282,-407.5"/>
<text text-anchor="middle" x="351" y="-439.2" font-family="Courier New" font-size="14.00">tState=1</text>
<polyline fill="none" stroke="black" points="270,-432 432.5,-432"/>
<text text-anchor="middle" x="310.62" y="-414.7" font-family="Courier New" font-size="14.00">t1.cs=␡</text>
<polyline fill="none" stroke="black" points="351.25,-407.5 351.25,-432"/>
<text text-anchor="middle" x="391.88" y="-414.7" font-family="Courier New" font-size="14.00">t2.cs=␡</text>
</g>
<!-- s6&#45;&gt;s9 -->
<g id="s6&#45;s9" class="edge">
<title>s6&#45;&gt;s9</title>
<path fill="none" stroke="#be123c" d="M351.25,-508.86C351.25,-496.64 351.25,-481.54 351.25,-468.04"/>
<polygon fill="#be123c" stroke="#be123c" points="354.75,-468.21 351.25,-458.21 347.75,-468.21 354.75,-468.21"/>
<text text-anchor="middle" x="356.88" y="-477.45" font-family="Helvetica,sans-Serif" font-size="14.00" fill="#be123c">t1</text>
</g>
<!-- s10 -->
<g id="s10" class="node">
<title>s10</title>
<path fill="#bbf7d0" stroke="black" d="M498.75,-407.5C498.75,-407.5 629.75,-407.5 629.75,-407.5 635.75,-407.5 641.75,-413.5 641.75,-419.5 641.75,-419.5 641.75,-444.5 641.75,-444.5 641.75,-450.5 635.75,-456.5 629.75,-456.5 629.75,-456.5 498.75,-456.5 498.75,-456.5 492.75,-456.5 486.75,-450.5 486.75,-444.5 486.75,-444.5 486.75,-419.5 486.75,-419.5 486.75,-413.5 492.75,-407.5 498.75,-407.5"/>
<text text-anchor="middle" x="564.25" y="-439.2" font-family="Courier New" font-size="14.00">tState=0</text>
<polyline fill="none" stroke="black" points="486.75,-432 641.75,-432"/>
<text text-anchor="middle" x="527.38" y="-414.7" font-family="Courier New" font-size="14.00">t1.cs=␡</text>
<polyline fill="none" stroke="black" points="568,-407.5 568,-432"/>
<text text-anchor="middle" x="604.88" y="-414.7" font-family="Courier New" font-size="14.00">t2.cs=T</text>
</g>
<!-- s6&#45;&gt;s10 -->
<g id="s6&#45;s10" class="edge">
<title>s6&#45;&gt;s10</title>
<path fill="none" stroke="#1d4ed8" d="M402.27,-508.86C432.59,-494.66 471.23,-476.56 503.16,-461.61"/>
<polygon fill="#1d4ed8" stroke="#1d4ed8" points="504.34,-464.92 511.91,-457.51 501.37,-458.58 504.34,-464.92"/>
<text text-anchor="middle" x="476.13" y="-477.45" font-family="Helvetica,sans-Serif" font-size="14.00" fill="#1d4ed8">t2</text>
</g>
<!-- s7&#45;&gt;s10 -->
<g id="s7&#45;s10" class="edge">
<title>s7&#45;&gt;s10</title>
<path fill="none" stroke="#be123c" d="M564.25,-508.86C564.25,-496.64 564.25,-481.54 564.25,-468.04"/>
<polygon fill="#be123c" stroke="#be123c" points="567.75,-468.21 564.25,-458.21 560.75,-468.21 567.75,-468.21"/>
<text text-anchor="middle" x="569.88" y="-477.45" font-family="Helvetica,sans-Serif" font-size="14.00" fill="#be123c">t1</text>
</g>
<!-- s11 -->
<g id="s11" class="node">
<title>s11</title>
<path fill="#f1f5f9" stroke="black" d="M708,-407.5C708,-407.5 846.5,-407.5 846.5,-407.5 852.5,-407.5 858.5,-413.5 858.5,-419.5 858.5,-419.5 858.5,-444.5 858.5,-444.5 858.5,-450.5 852.5,-456.5 846.5,-456.5 846.5,-456.5 708,-456.5 708,-456.5 702,-456.5 696,-450.5 696,-444.5 696,-444.5 696,-419.5 696,-419.5 696,-413.5 702,-407.5 708,-407.5"/>
<text text-anchor="middle" x="777" y="-439.2" font-family="Courier New" font-size="14.00">tState=0</text>
<polyline fill="none" stroke="black" points="696,-432 858.5,-432"/>
<text text-anchor="middle" x="736.62" y="-414.7" font-family="Courier New" font-size="14.00">t1.cs=␡</text>
<polyline fill="none" stroke="black" points="777.25,-407.5 777.25,-432"/>
<text text-anchor="middle" x="817.88" y="-414.7" font-family="Courier New" font-size="14.00">t2.cs=␡</text>
</g>
<!-- s7&#45;&gt;s11 -->
<g id="s7&#45;s11" class="edge">
<title>s7&#45;&gt;s11</title>
<path fill="none" stroke="#1d4ed8" d="M615.27,-508.86C645.59,-494.66 684.23,-476.56 716.16,-461.61"/>
<polygon fill="#1d4ed8" stroke="#1d4ed8" points="717.34,-464.92 724.91,-457.51 714.37,-458.58 717.34,-464.92"/>
<text text-anchor="middle" x="689.13" y="-477.45" font-family="Helvetica,sans-Serif" font-size="14.00" fill="#1d4ed8">t2</text>
</g>
<!-- s8&#45;&gt;s8 -->
<g id="s8&#45;s8" class="edge">
<title>s8&#45;&gt;s8</title>
<path fill="none" stroke="#be123c" d="M161.22,-441.51C190.55,-441.85 214.75,-438.68 214.75,-432 214.75,-426.21 196.55,-423.05 172.59,-422.54"/>
<polygon fill="#be123c" stroke="#be123c" points="172.75,-419.04 162.74,-422.49 172.72,-426.04 172.75,-419.04"/>
<text text-anchor="middle" x="220.38" y="-426.57" font-family="Helvetica,sans-Serif" font-size="14.00" fill="#be123c">t1</text>
</g>
<!-- s12 -->
<g id="s12" class="node">
<title>s12</title>
<path fill="#f1f5f9" stroke="black" d="M12,-305.75C12,-305.75 150.5,-305.75 150.5,-305.75 156.5,-305.75 162.5,-311.75 162.5,-317.75 162.5,-317.75 162.5,-342.75 162.5,-342.75 162.5,-348.75 156.5,-354.75 150.5,-354.75 150.5,-354.75 12,-354.75 12,-354.75 6,-354.75 0,-348.75 0,-342.75 0,-342.75 0,-317.75 0,-317.75 0,-311.75 6,-305.75 12,-305.75"/>
<text text-anchor="middle" x="81" y="-337.45" font-family="Courier New" font-size="14.00">tState=0</text>
<polyline fill="none" stroke="black" points="0,-330.25 162.5,-330.25"/>
<text text-anchor="middle" x="40.62" y="-312.95" font-family="Courier New" font-size="14.00">t1.cs=␡</text>
<polyline fill="none" stroke="black" points="81.25,-305.75 81.25,-330.25"/>
<text text-anchor="middle" x="121.88" y="-312.95" font-family="Courier New" font-size="14.00">t2.cs=␡</text>
</g>
<!-- s8&#45;&gt;s12 -->
<g id="s8&#45;s12" class="edge">
<title>s8&#45;&gt;s12</title>
<path fill="none" stroke="#1d4ed8" d="M82.77,-407.11C82.53,-394.89 82.22,-379.79 81.95,-366.29"/>
<polygon fill="#1d4ed8" stroke="#1d4ed8" points="85.46,-366.39 81.76,-356.46 78.46,-366.53 85.46,-366.39"/>
<text text-anchor="middle" x="87.99" y="-375.7" font-family="Helvetica,sans-Serif" font-size="14.00" fill="#1d4ed8">t2</text>
</g>
<!-- s13 -->
<g id="s13" class="node">
<title>s13</title>
<path fill="#bfdbfe" stroke="black" d="M286.75,-305.75C286.75,-305.75 417.75,-305.75 417.75,-305.75 423.75,-305.75 429.75,-311.75 429.75,-317.75 429.75,-317.75 429.75,-342.75 429.75,-342.75 429.75,-348.75 423.75,-354.75 417.75,-354.75 417.75,-354.75 286.75,-354.75 286.75,-354.75 280.75,-354.75 274.75,-348.75 274.75,-342.75 274.75,-342.75 274.75,-317.75 274.75,-317.75 274.75,-311.75 280.75,-305.75 286.75,-305.75"/>
<text text-anchor="middle" x="352.25" y="-337.45" font-family="Courier New" font-size="14.00">tState=1</text>
<polyline fill="none" stroke="black" points="274.75,-330.25 429.75,-330.25"/>
<text text-anchor="middle" x="311.62" y="-312.95" font-family="Courier New" font-size="14.00">t1.cs=T</text>
<polyline fill="none" stroke="black" points="348.5,-305.75 348.5,-330.25"/>
<text text-anchor="middle" x="389.12" y="-312.95" font-family="Courier New" font-size="14.00">t2.cs=␡</text>
</g>
<!-- s9&#45;&gt;s13 -->
<g id="s9&#45;s13" class="edge">
<title>s9&#45;&gt;s13</title>
<path fill="none" stroke="#be123c" d="M351.49,-407.11C351.61,-394.89 351.76,-379.79 351.9,-366.29"/>
<polygon fill="#be123c" stroke="#be123c" points="355.4,-366.5 352,-356.46 348.4,-366.43 355.4,-366.5"/>
<text text-anchor="middle" x="357.43" y="-375.7" font-family="Helvetica,sans-Serif" font-size="14.00" fill="#be123c">t1</text>
</g>
<!-- s14 -->
<g id="s14" class="node">
<title>s14</title>
<path fill="#bbf7d0" stroke="black" d="M497.75,-305.75C497.75,-305.75 628.75,-305.75 628.75,-305.75 634.75,-305.75 640.75,-311.75 640.75,-317.75 640.75,-317.75 640.75,-342.75 640.75,-342.75 640.75,-348.75 634.75,-354.75 628.75,-354.75 628.75,-354.75 497.75,-354.75 497.75,-354.75 491.75,-354.75 485.75,-348.75 485.75,-342.75 485.75,-342.75 485.75,-317.75 485.75,-317.75 485.75,-311.75 491.75,-305.75 497.75,-305.75"/>
<text text-anchor="middle" x="563.25" y="-337.45" font-family="Courier New" font-size="14.00">tState=1</text>
<polyline fill="none" stroke="black" points="485.75,-330.25 640.75,-330.25"/>
<text text-anchor="middle" x="526.38" y="-312.95" font-family="Courier New" font-size="14.00">t1.cs=␡</text>
<polyline fill="none" stroke="black" points="567,-305.75 567,-330.25"/>
<text text-anchor="middle" x="603.88" y="-312.95" font-family="Courier New" font-size="14.00">t2.cs=T</text>
</g>
<!-- s9&#45;&gt;s14 -->
<g id="s9&#45;s14" class="edge">
<title>s9&#45;&gt;s14</title>
<path fill="none" stroke="#1d4ed8" d="M402.03,-407.11C432.21,-392.91 470.66,-374.81 502.45,-359.86"/>
<polygon fill="#1d4ed8" stroke="#1d4ed8" points="503.59,-363.19 511.15,-355.76 500.61,-356.86 503.59,-363.19"/>
<text text-anchor="middle" x="475.57" y="-375.7" font-family="Helvetica,sans-Serif" font-size="14.00" fill="#1d4ed8">t2</text>
</g>
<!-- s10&#45;&gt;s14 -->
<g id="s10&#45;s14" class="edge">
<title>s10&#45;&gt;s14</title>
<path fill="none" stroke="#be123c" d="M564.01,-407.11C563.89,-394.89 563.74,-379.79 563.6,-366.29"/>
<polygon fill="#be123c" stroke="#be123c" points="567.1,-366.43 563.5,-356.46 560.1,-366.5 567.1,-366.43"/>
<text text-anchor="middle" x="569.43" y="-375.7" font-family="Helvetica,sans-Serif" font-size="14.00" fill="#be123c">t1</text>
</g>
<!-- s15 -->
<g id="s15" class="node">
<title>s15</title>
<path fill="#f1f5f9" stroke="black" d="M707,-305.75C707,-305.75 845.5,-305.75 845.5,-305.75 851.5,-305.75 857.5,-311.75 857.5,-317.75 857.5,-317.75 857.5,-342.75 857.5,-342.75 857.5,-348.75 851.5,-354.75 845.5,-354.75 845.5,-354.75 707,-354.75 707,-354.75 701,-354.75 695,-348.75 695,-342.75 695,-342.75 695,-317.75 695,-317.75 695,-311.75 701,-305.75 707,-305.75"/>
<text text-anchor="middle" x="776" y="-337.45" font-family="Courier New" font-size="14.00">tState=0</text>
<polyline fill="none" stroke="black" points="695,-330.25 857.5,-330.25"/>
<text text-anchor="middle" x="735.62" y="-312.95" font-family="Courier New" font-size="14.00">t1.cs=␡</text>
<polyline fill="none" stroke="black" points="776.25,-305.75 776.25,-330.25"/>
<text text-anchor="middle" x="816.88" y="-312.95" font-family="Courier New" font-size="14.00">t2.cs=␡</text>
</g>
<!-- s10&#45;&gt;s15 -->
<g id="s10&#45;s15" class="edge">
<title>s10&#45;&gt;s15</title>
<path fill="none" stroke="#1d4ed8" d="M615.03,-407.11C645.21,-392.91 683.66,-374.81 715.45,-359.86"/>
<polygon fill="#1d4ed8" stroke="#1d4ed8" points="716.59,-363.19 724.15,-355.76 713.61,-356.86 716.59,-363.19"/>
<text text-anchor="middle" x="688.57" y="-375.7" font-family="Helvetica,sans-Serif" font-size="14.00" fill="#1d4ed8">t2</text>
</g>
<!-- s11&#45;&gt;s11 -->
<g id="s11&#45;s11" class="edge">
<title>s11&#45;&gt;s11</title>
<path fill="none" stroke="#1d4ed8" d="M858.79,-441.53C888.35,-441.76 912.5,-438.58 912.5,-432 912.5,-426.29 894.34,-423.14 870.24,-422.56"/>
<polygon fill="#1d4ed8" stroke="#1d4ed8" points="870.33,-419.06 860.3,-422.48 870.28,-426.06 870.33,-419.06"/>
<text text-anchor="middle" x="918.12" y="-426.57" font-family="Helvetica,sans-Serif" font-size="14.00" fill="#1d4ed8">t2</text>
</g>
<!-- s11&#45;&gt;s15 -->
<g id="s11&#45;s15" class="edge">
<title>s11&#45;&gt;s15</title>
<path fill="none" stroke="#be123c" d="M777.01,-407.11C776.89,-394.89 776.74,-379.79 776.6,-366.29"/>
<polygon fill="#be123c" stroke="#be123c" points="780.1,-366.43 776.5,-356.46 773.1,-366.5 780.1,-366.43"/>
<text text-anchor="middle" x="782.43" y="-375.7" font-family="Helvetica,sans-Serif" font-size="14.00" fill="#be123c">t1</text>
</g>
<!-- s12&#45;&gt;s12 -->
<g id="s12&#45;s12" class="edge">
<title>s12&#45;&gt;s12</title>
<path fill="none" stroke="#be123c" d="M162.79,-335.01C192.35,-335.13 216.5,-333.54 216.5,-330.25 216.5,-327.4 198.34,-325.82 174.24,-325.53"/>
<polygon fill="#be123c" stroke="#be123c" points="174.32,-322.03 164.3,-325.49 174.29,-329.03 174.32,-322.03"/>
<text text-anchor="middle" x="222.12" y="-324.82" font-family="Helvetica,sans-Serif" font-size="14.00" fill="#be123c">t1</text>
</g>
<!-- s12&#45;&gt;s12 -->
<g id="s12&#45;s12" class="edge">
<title>s12&#45;&gt;s12</title>
<path fill="none" stroke="#1d4ed8" d="M162.95,-338.95C217.45,-341.4 270.5,-338.5 270.5,-330.25 270.5,-322.58 224.65,-319.54 174.41,-321.11"/>
<polygon fill="#1d4ed8" stroke="#1d4ed8" points="174.32,-317.62 164.46,-321.49 174.59,-324.61 174.32,-317.62"/>
<text text-anchor="middle" x="276.12" y="-324.82" font-family="Helvetica,sans-Serif" font-size="14.00" fill="#1d4ed8">t2</text>
</g>
<!-- s16 -->
<g id="s16" class="node">
<title>s16</title>
<path fill="#f1f5f9" stroke="black" d="M256,-204C256,-204 394.5,-204 394.5,-204 400.5,-204 406.5,-210 406.5,-216 406.5,-216 406.5,-241 406.5,-241 406.5,-247 400.5,-253 394.5,-253 394.5,-253 256,-253 256,-253 250,-253 244,-247 244,-241 244,-241 244,-216 244,-216 244,-210 250,-204 256,-204"/>
<text text-anchor="middle" x="325" y="-235.7" font-family="Courier New" font-size="14.00">tState=1</text>
<polyline fill="none" stroke="black" points="244,-228.5 406.5,-228.5"/>
<text text-anchor="middle" x="284.62" y="-211.2" font-family="Courier New" font-size="14.00">t1.cs=␡</text>
<polyline fill="none" stroke="black" points="325.25,-204 325.25,-228.5"/>
<text text-anchor="middle" x="365.88" y="-211.2" font-family="Courier New" font-size="14.00">t2.cs=␡</text>
</g>
<!-- s13&#45;&gt;s16 -->
<g id="s13&#45;s16" class="edge">
<title>s13&#45;&gt;s16</title>
<path fill="none" stroke="#be123c" d="M345.78,-305.36C342.44,-293.02 338.31,-277.74 334.62,-264.13"/>
<polygon fill="#be123c" stroke="#be123c" points="338.05,-263.4 332.06,-254.66 331.29,-265.23 338.05,-263.4"/>
<text text-anchor="middle" x="345.99" y="-273.95" font-family="Helvetica,sans-Serif" font-size="14.00" fill="#be123c">t1</text>
</g>
<!-- s17 -->
<g id="s17" class="node">
<title>s17</title>
<path fill="#fecaca" stroke="black" d="M501.5,-204C501.5,-204 625,-204 625,-204 631,-204 637,-210 637,-216 637,-216 637,-241 637,-241 637,-247 631,-253 625,-253 625,-253 501.5,-253 501.5,-253 495.5,-253 489.5,-247 489.5,-241 489.5,-241 489.5,-216 489.5,-216 489.5,-210 495.5,-204 501.5,-204"/>
<text text-anchor="middle" x="563" y="-235.7" font-family="Courier New" font-size="14.00">tState=1</text>
<polyline fill="none" stroke="black" points="489.5,-228.5 637,-228.5"/>
<text text-anchor="middle" x="526.38" y="-211.2" font-family="Courier New" font-size="14.00">t1.cs=T</text>
<polyline fill="none" stroke="black" points="563.25,-204 563.25,-228.5"/>
<text text-anchor="middle" x="600.12" y="-211.2" font-family="Courier New" font-size="14.00">t2.cs=T</text>
</g>
<!-- s13&#45;&gt;s17 -->
<g id="s13&#45;s17" class="edge">
<title>s13&#45;&gt;s17</title>
<path fill="none" stroke="#1d4ed8" d="M402.79,-305.36C432.82,-291.16 471.1,-273.06 502.74,-258.11"/>
<polygon fill="#1d4ed8" stroke="#1d4ed8" points="503.84,-261.46 511.39,-254.02 500.85,-255.13 503.84,-261.46"/>
<text text-anchor="middle" x="476.01" y="-273.95" font-family="Helvetica,sans-Serif" font-size="14.00" fill="#1d4ed8">t2</text>
</g>
<!-- s14&#45;&gt;s17 -->
<g id="s14&#45;s17" class="edge">
<title>s14&#45;&gt;s17</title>
<path fill="none" stroke="#be123c" d="M563.25,-305.36C563.25,-293.14 563.25,-278.04 563.25,-264.54"/>
<polygon fill="#be123c" stroke="#be123c" points="566.75,-264.71 563.25,-254.71 559.75,-264.71 566.75,-264.71"/>
<text text-anchor="middle" x="568.88" y="-273.95" font-family="Helvetica,sans-Serif" font-size="14.00" fill="#be123c">t1</text>
</g>
<!-- s18 -->
<g id="s18" class="node">
<title>s18</title>
<path fill="#f1f5f9" stroke="black" d="M703,-204C703,-204 841.5,-204 841.5,-204 847.5,-204 853.5,-210 853.5,-216 853.5,-216 853.5,-241 853.5,-241 853.5,-247 847.5,-253 841.5,-253 841.5,-253 703,-253 703,-253 697,-253 691,-247 691,-241 691,-241 691,-216 691,-216 691,-210 697,-204 703,-204"/>
<text text-anchor="middle" x="772" y="-235.7" font-family="Courier New" font-size="14.00">tState=1</text>
<polyline fill="none" stroke="black" points="691,-228.5 853.5,-228.5"/>
<text text-anchor="middle" x="731.62" y="-211.2" font-family="Courier New" font-size="14.00">t1.cs=␡</text>
<polyline fill="none" stroke="black" points="772.25,-204 772.25,-228.5"/>
<text text-anchor="middle" x="812.88" y="-211.2" font-family="Courier New" font-size="14.00">t2.cs=␡</text>
</g>
<!-- s14&#45;&gt;s18 -->
<g id="s14&#45;s18" class="edge">
<title>s14&#45;&gt;s18</title>
<path fill="none" stroke="#1d4ed8" d="M613.31,-305.36C642.93,-291.22 680.65,-273.22 711.9,-258.3"/>
<polygon fill="#1d4ed8" stroke="#1d4ed8" points="713.35,-261.49 720.87,-254.02 710.34,-255.17 713.35,-261.49"/>
<text text-anchor="middle" x="685.89" y="-273.95" font-family="Helvetica,sans-Serif" font-size="14.00" fill="#1d4ed8">t2</text>
</g>
<!-- s15&#45;&gt;s15 -->
<g id="s15&#45;s15" class="edge">
<title>s15&#45;&gt;s15</title>
<path fill="none" stroke="#1d4ed8" d="M857.79,-339.78C887.35,-340.01 911.5,-336.83 911.5,-330.25 911.5,-324.54 893.34,-321.39 869.24,-320.81"/>
<polygon fill="#1d4ed8" stroke="#1d4ed8" points="869.33,-317.31 859.3,-320.73 869.28,-324.31 869.33,-317.31"/>
<text text-anchor="middle" x="917.12" y="-324.82" font-family="Helvetica,sans-Serif" font-size="14.00" fill="#1d4ed8">t2</text>
</g>
<!-- s15&#45;&gt;s18 -->
<g id="s15&#45;s18" class="edge">
<title>s15&#45;&gt;s18</title>
<path fill="none" stroke="#be123c" d="M775.29,-305.36C774.8,-293.14 774.2,-278.04 773.66,-264.54"/>
<polygon fill="#be123c" stroke="#be123c" points="777.16,-264.56 773.26,-254.71 770.16,-264.84 777.16,-264.56"/>
<text text-anchor="middle" x="780.11" y="-273.95" font-family="Helvetica,sans-Serif" font-size="14.00" fill="#be123c">t1</text>
</g>
<!-- s16&#45;&gt;s16 -->
<g id="s16&#45;s16" class="edge">
<title>s16&#45;&gt;s16</title>
<path fill="none" stroke="#be123c" d="M406.79,-238.03C436.35,-238.26 460.5,-235.08 460.5,-228.5 460.5,-222.79 442.34,-219.64 418.24,-219.06"/>
<polygon fill="#be123c" stroke="#be123c" points="418.33,-215.56 408.3,-218.98 418.28,-222.56 418.33,-215.56"/>
<text text-anchor="middle" x="466.12" y="-223.07" font-family="Helvetica,sans-Serif" font-size="14.00" fill="#be123c">t1</text>
</g>
<!-- s19 -->
<g id="s19" class="node">
<title>s19</title>
<path fill="#bbf7d0" stroke="black" d="M353.75,-102.25C353.75,-102.25 484.75,-102.25 484.75,-102.25 490.75,-102.25 496.75,-108.25 496.75,-114.25 496.75,-114.25 496.75,-139.25 496.75,-139.25 496.75,-145.25 490.75,-151.25 484.75,-151.25 484.75,-151.25 353.75,-151.25 353.75,-151.25 347.75,-151.25 341.75,-145.25 341.75,-139.25 341.75,-139.25 341.75,-114.25 341.75,-114.25 341.75,-108.25 347.75,-102.25 353.75,-102.25"/>
<text text-anchor="middle" x="419.25" y="-133.95" font-family="Courier New" font-size="14.00">tState=1</text>
<polyline fill="none" stroke="black" points="341.75,-126.75 496.75,-126.75"/>
<text text-anchor="middle" x="382.38" y="-109.45" font-family="Courier New" font-size="14.00">t1.cs=␡</text>
<polyline fill="none" stroke="black" points="423,-102.25 423,-126.75"/>
<text text-anchor="middle" x="459.88" y="-109.45" font-family="Courier New" font-size="14.00">t2.cs=T</text>
</g>
<!-- s16&#45;&gt;s19 -->
<g id="s16&#45;s19" class="edge">
<title>s16&#45;&gt;s19</title>
<path fill="none" stroke="#1d4ed8" d="M347.77,-203.61C360.21,-190.41 375.82,-173.83 389.28,-159.55"/>
<polygon fill="#1d4ed8" stroke="#1d4ed8" points="391.57,-162.23 395.88,-152.55 386.47,-157.43 391.57,-162.23"/>
<text text-anchor="middle" x="383.5" y="-172.2" font-family="Helvetica,sans-Serif" font-size="14.00" fill="#1d4ed8">t2</text>
</g>
<!-- s17&#45;&gt;s19 -->
<g id="s17&#45;s19" class="edge">
<title>s17&#45;&gt;s19</title>
<path fill="none" stroke="#be123c" d="M528.76,-203.61C508.99,-189.91 483.98,-172.59 462.86,-157.96"/>
<polygon fill="#be123c" stroke="#be123c" points="464.92,-155.13 454.7,-152.31 460.93,-160.88 464.92,-155.13"/>
<text text-anchor="middle" x="505.5" y="-172.2" font-family="Helvetica,sans-Serif" font-size="14.00" fill="#be123c">t1</text>
</g>
<!-- s20 -->
<g id="s20" class="node">
<title>s20</title>
<path fill="#bfdbfe" stroke="black" d="M591.75,-102.25C591.75,-102.25 722.75,-102.25 722.75,-102.25 728.75,-102.25 734.75,-108.25 734.75,-114.25 734.75,-114.25 734.75,-139.25 734.75,-139.25 734.75,-145.25 728.75,-151.25 722.75,-151.25 722.75,-151.25 591.75,-151.25 591.75,-151.25 585.75,-151.25 579.75,-145.25 579.75,-139.25 579.75,-139.25 579.75,-114.25 579.75,-114.25 579.75,-108.25 585.75,-102.25 591.75,-102.25"/>
<text text-anchor="middle" x="657.25" y="-133.95" font-family="Courier New" font-size="14.00">tState=1</text>
<polyline fill="none" stroke="black" points="579.75,-126.75 734.75,-126.75"/>
<text text-anchor="middle" x="616.62" y="-109.45" font-family="Courier New" font-size="14.00">t1.cs=T</text>
<polyline fill="none" stroke="black" points="653.5,-102.25 653.5,-126.75"/>
<text text-anchor="middle" x="694.12" y="-109.45" font-family="Courier New" font-size="14.00">t2.cs=␡</text>
</g>
<!-- s17&#45;&gt;s20 -->
<g id="s17&#45;s20" class="edge">
<title>s17&#45;&gt;s20</title>
<path fill="none" stroke="#1d4ed8" d="M585.77,-203.61C598.21,-190.41 613.82,-173.83 627.28,-159.55"/>
<polygon fill="#1d4ed8" stroke="#1d4ed8" points="629.57,-162.23 633.88,-152.55 624.47,-157.43 629.57,-162.23"/>
<text text-anchor="middle" x="621.5" y="-172.2" font-family="Helvetica,sans-Serif" font-size="14.00" fill="#1d4ed8">t2</text>
</g>
<!-- s18&#45;&gt;s18 -->
<g id="s18&#45;s18" class="edge">
<title>s18&#45;&gt;s18</title>
<path fill="none" stroke="#1d4ed8" d="M853.79,-238.03C883.35,-238.26 907.5,-235.08 907.5,-228.5 907.5,-222.79 889.34,-219.64 865.24,-219.06"/>
<polygon fill="#1d4ed8" stroke="#1d4ed8" points="865.33,-215.56 855.3,-218.98 865.28,-222.56 865.33,-215.56"/>
<text text-anchor="middle" x="913.12" y="-223.07" font-family="Helvetica,sans-Serif" font-size="14.00" fill="#1d4ed8">t2</text>
</g>
<!-- s18&#45;&gt;s20 -->
<g id="s18&#45;s20" class="edge">
<title>s18&#45;&gt;s20</title>
<path fill="none" stroke="#be123c" d="M744.7,-203.61C729.2,-190.16 709.66,-173.21 692.99,-158.75"/>
<polygon fill="#be123c" stroke="#be123c" points="695.56,-156.35 685.71,-152.44 690.97,-161.64 695.56,-156.35"/>
<text text-anchor="middle" x="727.26" y="-172.2" font-family="Helvetica,sans-Serif" font-size="14.00" fill="#be123c">t1</text>
</g>
<!-- s19&#45;&gt;s19 -->
<g id="s19&#45;s19" class="edge">
<title>s19&#45;&gt;s19</title>
<path fill="none" stroke="#be123c" d="M497.22,-136.26C526.55,-136.6 550.75,-133.43 550.75,-126.75 550.75,-120.96 532.55,-117.8 508.59,-117.29"/>
<polygon fill="#be123c" stroke="#be123c" points="508.75,-113.79 498.74,-117.24 508.72,-120.79 508.75,-113.79"/>
<text text-anchor="middle" x="556.38" y="-121.33" font-family="Helvetica,sans-Serif" font-size="14.00" fill="#be123c">t1</text>
</g>
<!-- s21 -->
<g id="s21" class="node">
<title>s21</title>
<path fill="#f1f5f9" stroke="black" d="M469,-0.5C469,-0.5 607.5,-0.5 607.5,-0.5 613.5,-0.5 619.5,-6.5 619.5,-12.5 619.5,-12.5 619.5,-37.5 619.5,-37.5 619.5,-43.5 613.5,-49.5 607.5,-49.5 607.5,-49.5 469,-49.5 469,-49.5 463,-49.5 457,-43.5 457,-37.5 457,-37.5 457,-12.5 457,-12.5 457,-6.5 463,-0.5 469,-0.5"/>
<text text-anchor="middle" x="538" y="-32.2" font-family="Courier New" font-size="14.00">tState=1</text>
<polyline fill="none" stroke="black" points="457,-25 619.5,-25"/>
<text text-anchor="middle" x="497.62" y="-7.7" font-family="Courier New" font-size="14.00">t1.cs=␡</text>
<polyline fill="none" stroke="black" points="538.25,-0.5 538.25,-25"/>
<text text-anchor="middle" x="578.88" y="-7.7" font-family="Courier New" font-size="14.00">t2.cs=␡</text>
</g>
<!-- s19&#45;&gt;s21 -->
<g id="s19&#45;s21" class="edge">
<title>s19&#45;&gt;s21</title>
<path fill="none" stroke="#1d4ed8" d="M447.75,-101.86C463.8,-88.41 484.01,-71.46 501.26,-57"/>
<polygon fill="#1d4ed8" stroke="#1d4ed8" points="503.4,-59.78 508.82,-50.67 498.91,-54.41 503.4,-59.78"/>
<text text-anchor="middle" x="491.5" y="-70.45" font-family="Helvetica,sans-Serif" font-size="14.00" fill="#1d4ed8">t2</text>
</g>
<!-- s20&#45;&gt;s20 -->
<g id="s20&#45;s20" class="edge">
<title>s20&#45;&gt;s20</title>
<path fill="none" stroke="#1d4ed8" d="M735.22,-136.26C764.55,-136.6 788.75,-133.43 788.75,-126.75 788.75,-120.96 770.55,-117.8 746.59,-117.29"/>
<polygon fill="#1d4ed8" stroke="#1d4ed8" points="746.75,-113.79 736.74,-117.24 746.72,-120.79 746.75,-113.79"/>
<text text-anchor="middle" x="794.38" y="-121.33" font-family="Helvetica,sans-Serif" font-size="14.00" fill="#1d4ed8">t2</text>
</g>
<!-- s20&#45;&gt;s21 -->
<g id="s20&#45;s21" class="edge">
<title>s20&#45;&gt;s21</title>
<path fill="none" stroke="#be123c" d="M628.75,-101.86C612.7,-88.41 592.49,-71.46 575.24,-57"/>
<polygon fill="#be123c" stroke="#be123c" points="577.59,-54.41 567.68,-50.67 573.1,-59.78 577.59,-54.41"/>
<text text-anchor="middle" x="610.5" y="-70.45" font-family="Helvetica,sans-Serif" font-size="14.00" fill="#be123c">t1</text>
</g>
<!-- s21&#45;&gt;s21 -->
<g id="s21&#45;s21" class="edge">
<title>s21&#45;&gt;s21</title>
<path fill="none" stroke="#be123c" d="M619.79,-29.76C649.35,-29.88 673.5,-28.29 673.5,-25 673.5,-22.15 655.34,-20.57 631.24,-20.28"/>
<polygon fill="#be123c" stroke="#be123c" points="631.32,-16.78 621.3,-20.24 631.29,-23.78 631.32,-16.78"/>
<text text-anchor="middle" x="679.12" y="-19.57" font-family="Helvetica,sans-Serif" font-size="14.00" fill="#be123c">t1</text>
</g>
<!-- s21&#45;&gt;s21 -->
<g id="s21&#45;s21" class="edge">
<title>s21&#45;&gt;s21</title>
<path fill="none" stroke="#1d4ed8" d="M619.95,-33.7C674.45,-36.15 727.5,-33.25 727.5,-25 727.5,-17.33 681.65,-14.29 631.41,-15.86"/>
<polygon fill="#1d4ed8" stroke="#1d4ed8" points="631.32,-12.37 621.46,-16.24 631.59,-19.36 631.32,-12.37"/>
<text text-anchor="middle" x="733.12" y="-19.57" font-family="Helvetica,sans-Serif" font-size="14.00" fill="#1d4ed8">t2</text>
</g>
</g>
</svg>
